<svg width="60" height="60" viewBox="0 0 60 60" xmlns="http://www.w3.org/2000/svg">
<path d="M32.6878 37.0496C31.9232 37.8322 30.9274 38.3485 29.8472 38.5225C28.7669 38.6964 27.6594 38.5187 26.6878 38.0156C25.3814 37.3495 24.2287 36.4175 23.3038 35.2796C22.4265 34.0796 21.8131 32.7076 21.5038 31.2536C21.2729 30.1849 21.3908 29.0704 21.84 28.0737C22.2893 27.0769 23.0462 26.2504 23.9998 25.7156L25.9918 24.5996L20.9998 12.5996L19.6318 13.1456C13.6318 15.5456 9.75581 19.2236 8.38781 23.8136C6.8098 29.0876 8.54981 35.3876 13.5538 42.5456C19.1998 50.6516 25.0918 52.4276 29.0398 52.4936H29.2798C34.5718 52.4936 39.9358 49.5416 43.6798 44.5556L44.5678 43.3556L34.2778 35.3996L32.6878 37.0496ZM40.3438 43.9016C37.2118 47.5016 33.0958 49.5476 29.0938 49.4936C24.3658 49.4156 19.9618 46.4936 16.0078 40.8416C11.5558 34.4696 9.95381 29.0336 11.2558 24.6836C12.4558 20.6096 16.1038 18.0836 19.3798 16.5296L22.1998 23.3036C20.79 24.1956 19.6885 25.4995 19.0445 27.0386C18.4006 28.5776 18.2453 30.2774 18.5998 31.9076C19.0031 33.7857 19.8007 35.5568 20.9398 37.1036C22.1265 38.5997 23.6174 39.8268 25.3138 40.7036C26.7969 41.469 28.4795 41.7598 30.1335 41.5366C31.7874 41.3133 33.3327 40.5868 34.5598 39.4556L40.3438 43.9016Z"/>
<path d="M49.1402 17.2317C47.0229 13.9384 43.9982 11.3279 40.4307 9.71497C36.8632 8.10209 32.9052 7.55569 29.0342 8.14166L29.4842 11.1057C32.2556 10.6872 35.0872 10.9483 37.7354 11.8664C40.3836 12.7845 42.7691 14.3321 44.6869 16.3761C46.6046 18.4202 47.9971 20.8995 48.7446 23.6008C49.4921 26.3021 49.5723 29.1445 48.9782 31.8837C48.721 33.0699 48.341 34.2262 47.8442 35.3337L50.5802 36.5337C51.9705 33.4466 52.567 30.0611 52.3155 26.6848C52.064 23.3085 50.9725 20.0486 49.1402 17.2017V17.2317Z"/>
<path d="M35.046 14.49C33.388 14.1284 31.6778 14.0735 30 14.328L30.45 17.292C32.2168 17.0317 34.0204 17.2035 35.7063 17.7925C37.3923 18.3816 38.9104 19.3705 40.1306 20.6745C41.3509 21.9785 42.2369 23.5588 42.713 25.28C43.189 27.0013 43.2408 28.8123 42.864 30.558C42.7029 31.3163 42.4595 32.0546 42.138 32.76L44.874 33.996C45.278 33.0985 45.5877 32.1615 45.798 31.2C46.1906 29.3967 46.2239 27.5338 45.8959 25.7176C45.5679 23.9015 44.885 22.1679 43.8864 20.6159C42.8878 19.0639 41.593 17.724 40.076 16.6729C38.5591 15.6217 36.8498 14.88 35.046 14.49Z"/>
<path d="M36.2455 30.1016L38.9815 31.3016C39.1983 30.8178 39.3652 30.3132 39.4795 29.7956C39.733 28.5973 39.6928 27.3554 39.3621 26.176C39.0315 24.9966 38.4204 23.9148 37.5809 23.0228C36.7414 22.1309 35.6986 21.4554 34.5414 21.054C33.3842 20.6525 32.147 20.5371 30.9355 20.7176L31.3855 23.6876C31.9362 23.6036 32.4976 23.622 33.0415 23.7416C34.2282 24.0003 35.2636 24.7193 35.9206 25.7407C36.5775 26.7622 36.8023 28.0026 36.5455 29.1896C36.4792 29.5037 36.3786 29.8095 36.2455 30.1016Z"/>
</svg>
