<svg width="180" height="48" viewBox="0 0 180 48" fill="none" xmlns="http://www.w3.org/2000/svg">
<path d="M125.268 12.8962H124.563C122.594 12.8962 121.004 11.3058 120.997 9.33707V6.93868C120.997 4.96994 122.594 3.37315 124.563 3.37315H125.313C126.897 3.37956 128.289 4.41844 128.75 5.93828C128.891 6.36794 128.648 6.82966 128.218 6.97074C128.141 6.99639 128.058 7.00922 127.974 7.00922H127.885C127.513 7.01563 127.173 6.78477 127.051 6.43206C126.814 5.67535 126.108 5.15591 125.313 5.1495H124.563C123.569 5.1495 122.767 5.9511 122.767 6.94509V9.36273C122.767 10.3503 123.569 11.1519 124.556 11.1519C124.556 11.1519 124.556 11.1519 124.563 11.1519H125.294C125.57 11.1519 125.839 11.0942 126.089 10.9723C126.538 10.7543 126.884 10.3631 127.044 9.88858C127.154 9.5487 127.461 9.31784 127.82 9.31142H127.949C128.404 9.31142 128.776 9.67054 128.782 10.1194C128.782 10.2028 128.77 10.2926 128.744 10.376C128.289 11.915 126.865 12.9667 125.262 12.9411V12.8962H125.268ZM154.312 6.95792C154.299 4.96994 152.677 3.36032 150.689 3.37315H149.983C147.995 3.37315 146.379 4.98918 146.379 6.97715V9.30501C146.379 11.293 147.995 12.9026 149.983 12.8962H150.624C151.426 12.9154 152.215 12.6717 152.869 12.2036C153.78 11.5238 154.312 10.4529 154.312 9.31784V6.97715C154.312 6.97715 154.312 6.96433 154.312 6.95792ZM152.497 9.2986C152.497 9.93988 152.157 10.5363 151.606 10.8697C151.311 11.0429 150.971 11.1327 150.624 11.1263H149.983C148.97 11.1263 148.149 10.3054 148.149 9.29218V6.95792C148.149 5.94469 148.97 5.12385 149.983 5.12385L150.663 5.14309C151.676 5.14309 152.497 5.96393 152.497 6.97715V9.2986ZM110.063 4.26453V6.98357H106.325V4.26453C106.325 3.77715 105.927 3.37956 105.44 3.37956C104.952 3.37956 104.555 3.77715 104.555 4.26453V12.0305C104.568 12.5114 104.959 12.8962 105.44 12.8962C105.927 12.8962 106.325 12.4986 106.325 12.0112V8.74068H110.063V12.0112C110.063 12.4858 110.442 12.877 110.916 12.8962C111.404 12.8962 111.801 12.4986 111.801 12.0112V4.26453C111.801 3.77715 111.404 3.37956 110.916 3.37956C110.442 3.3988 110.063 3.78998 110.063 4.26453ZM143.846 7.00922C144.09 6.62445 144.218 6.18196 144.218 5.72665C144.218 4.41844 143.16 3.36032 141.852 3.36032H139.415C138.729 3.36032 138.177 3.91182 138.177 4.598V12.8962H141.961C143.724 12.8321 145.122 11.3828 145.129 9.61924C145.129 8.5996 144.661 7.63126 143.846 7.00922ZM139.928 5.1495H141.916V5.13026C142.249 5.16232 142.487 5.45731 142.455 5.78437C142.422 6.06653 142.204 6.28457 141.922 6.31663H139.928V5.1495ZM143.327 9.86293C143.198 10.6132 142.544 11.1583 141.781 11.1455H139.928V11.1134L139.934 8.10581H141.903C142.737 8.14429 143.384 8.8497 143.346 9.68978C143.346 9.74749 143.339 9.80521 143.327 9.86293ZM119.445 3.37315H113.796C113.308 3.37315 112.911 3.77074 112.911 4.25812C112.911 4.74549 113.308 5.14309 113.796 5.14309H115.719V12.0305C115.732 12.5178 116.136 12.909 116.624 12.8962C117.111 12.8962 117.502 12.505 117.502 12.0176C117.502 12.0176 117.502 12.0176 117.502 12.0112V5.14309H119.426C119.913 5.1495 120.317 4.75832 120.324 4.27094C120.324 4.27094 120.324 4.26453 120.324 4.25812C120.324 3.77074 119.933 3.37956 119.445 3.37315ZM135.849 3.37315H130.193C129.706 3.37315 129.308 3.76433 129.302 4.2517C129.302 4.2517 129.302 4.2517 129.302 4.25812C129.302 4.74549 129.699 5.14309 130.187 5.14309H132.111V12.0305C132.123 12.5178 132.527 12.909 133.015 12.8962C133.015 12.8962 133.015 12.8962 133.021 12.8962C133.509 12.8962 133.906 12.4986 133.906 12.0112V5.14309H135.83C136.317 5.14309 136.715 4.74549 136.715 4.25812C136.715 3.77715 136.33 3.38597 135.849 3.37315ZM101.605 8.74709C102.265 8.74709 102.798 8.21483 102.804 7.55431V6.97715C102.804 4.98918 101.188 3.37315 99.2 3.37315H98.5202C96.5323 3.37315 94.9162 4.98918 94.9162 6.97715V9.31142C94.9291 11.293 96.5387 12.8962 98.5202 12.8962H99.1615C99.976 12.909 100.771 12.6461 101.425 12.1523C102.002 11.7098 102.432 11.107 102.657 10.4144C102.804 9.96553 102.554 9.48457 102.105 9.33707C102.022 9.31142 101.932 9.29218 101.842 9.2986H101.791C101.412 9.2986 101.079 9.5487 100.964 9.90781C100.707 10.6774 99.9695 11.184 99.1615 11.1455H98.5202C97.507 11.1455 96.6862 10.3246 96.6862 9.31142V8.74709H101.605ZM96.6605 6.97715C96.6605 5.96393 97.4814 5.14309 98.4946 5.14309C98.501 5.14309 98.5138 5.14309 98.5202 5.14309H99.2256C100.239 5.14309 101.06 5.96393 101.06 6.97715H96.6605ZM85.3611 0H80.9555C78.9675 0 77.3579 1.60962 77.3515 3.5976V12.0305C77.3643 12.5114 77.7555 12.8962 78.2365 12.8962C78.7238 12.8962 79.1214 12.4986 79.1214 12.0112V6.61162H84.5082V12.0305C84.5146 12.5114 84.9058 12.8962 85.3868 12.8962C85.8677 12.8962 86.2717 12.4986 86.2717 12.0112V0.923447C86.2717 0.416834 85.8677 0.00641283 85.3611 0ZM84.5082 4.84168H79.1214V3.5976C79.1214 2.58437 79.9423 1.76994 80.9555 1.76353H84.5082V4.84168ZM91.8958 3.37315C89.9078 3.37315 88.2982 4.98277 88.2918 6.97074V12.0305C88.3046 12.5114 88.6958 12.8962 89.1768 12.8962C89.6641 12.8962 90.0617 12.4986 90.0617 12.0112V6.97074C90.0617 5.95751 90.8826 5.13667 91.8958 5.13667H93.2361C93.7234 5.13667 94.121 4.73908 94.121 4.2517C94.121 3.76433 93.7299 3.37315 93.2425 3.37315C93.2425 3.37315 93.2425 3.37315 93.2361 3.37315H91.8958ZM129.103 18.4946H123.447C122.96 18.4946 122.562 18.8922 122.562 19.3796C122.562 19.8669 122.953 20.2581 123.44 20.2581C123.44 20.2581 123.44 20.2581 123.447 20.2581H125.371V27.1519C125.371 27.6393 125.768 28.0369 126.256 28.0369C126.743 28.0369 127.141 27.6393 127.141 27.1519V20.2645H129.065C129.552 20.2645 129.943 19.8733 129.943 19.386C129.949 18.9114 129.578 18.5138 129.103 18.4946ZM148.098 18.4946C148.098 18.4946 148.079 18.4946 148.066 18.4946H143.776C142.41 18.5074 141.319 19.6232 141.332 20.9892C141.345 22.1627 142.179 23.1631 143.333 23.3876L141.409 26.7671C141.172 27.1711 141.307 27.697 141.717 27.9343C141.852 28.0112 141.999 28.0497 142.153 28.0497H142.211C142.519 28.0497 142.801 27.8894 142.955 27.62L145.327 23.4261H147.553V27.1455C147.553 27.6329 147.95 28.0305 148.438 28.0305C148.925 28.0305 149.323 27.6329 149.323 27.1455V19.7323C149.323 19.0525 148.778 18.501 148.098 18.4946ZM147.533 21.6561H143.776C143.391 21.6561 143.077 21.3419 143.077 20.9571C143.077 20.5723 143.391 20.2581 143.776 20.2581H147.533V21.6561ZM101.162 22.1371C101.464 21.6754 101.592 21.1303 101.528 20.5852C101.374 19.3667 100.329 18.4625 99.1038 18.4753H96.808C96.3335 18.4882 95.9487 18.8729 95.9487 19.3539C95.9487 19.8413 96.3399 20.2325 96.8273 20.2325H99.1551C99.4565 20.2261 99.7258 20.4313 99.7964 20.7263C99.8477 21.079 99.604 21.3996 99.2513 21.4509C99.2192 21.4509 99.1872 21.4573 99.1551 21.4509H98.283C97.7956 21.4509 97.398 21.8485 97.398 22.3359C97.398 22.8232 97.7956 23.2208 98.283 23.2208H99.0974C99.8605 23.2016 100.527 23.7467 100.656 24.5034C100.784 25.3307 100.213 26.1066 99.386 26.2349C99.309 26.2477 99.2321 26.2541 99.1551 26.2541H97.7828C97.1543 26.2541 96.59 25.8693 96.3655 25.2794C96.2309 24.9459 95.9038 24.7279 95.5447 24.7343C95.0573 24.7343 94.6661 25.1255 94.6661 25.6128C94.6661 25.7218 94.6854 25.8309 94.7239 25.9335C95.2176 27.1904 96.4297 28.024 97.7828 28.024H99.1551C100.97 28.024 102.438 26.5555 102.438 24.7407C102.438 23.7146 101.964 22.7527 101.149 22.1307H101.162V22.1371ZM109.98 22.1242C110.23 21.7395 110.358 21.297 110.352 20.8417C110.352 19.5335 109.294 18.4818 107.986 18.4753H105.529C104.843 18.4753 104.292 19.0204 104.285 19.7066C104.285 19.713 104.285 19.7259 104.285 19.7323V28.0305H108.069C109.852 27.9727 111.263 26.517 111.263 24.7343C111.263 23.7146 110.788 22.7463 109.98 22.1242ZM106.062 20.2581L108.056 20.2453C108.358 20.2838 108.582 20.5403 108.576 20.8417C108.588 21.1559 108.345 21.4188 108.03 21.4381H106.062V20.2581ZM107.966 26.2541L106.068 26.2413V23.2208H108.03C108.845 23.2465 109.493 23.9198 109.48 24.7343C109.48 25.5679 108.806 26.2477 107.966 26.2541ZM82.1868 15.115C82.1355 15.115 82.0842 15.115 82.0265 15.115H78.5892C77.903 15.115 77.3515 15.6729 77.3515 16.3591V27.1519C77.3515 27.6393 77.7491 28.0369 78.2365 28.0369C78.7238 28.0369 79.1214 27.6393 79.1214 27.1519V21.7267H81.9303C83.713 21.7459 85.2008 20.3735 85.3226 18.5908C85.4124 16.7631 84.008 15.2112 82.1868 15.1214V15.115ZM82.0265 19.9631L79.1214 19.9567V16.885H82.0265C82.8794 16.885 83.5655 17.5711 83.5655 18.424C83.5655 19.277 82.8794 19.9631 82.0265 19.9631ZM89.927 18.4818H89.2858C88.3687 18.4689 87.4774 18.8024 86.7848 19.4116C86.6373 19.5463 86.4962 19.6938 86.3744 19.8541C86.0729 20.2261 86.1307 20.7647 86.5026 21.0597C86.5731 21.1174 86.6565 21.1687 86.7463 21.2008C87.1118 21.3355 87.5287 21.2265 87.7788 20.9251C87.8365 20.8545 87.9006 20.7904 87.9711 20.7263C88.3238 20.412 88.7792 20.2453 89.2537 20.2517H89.895C90.9082 20.2517 91.7226 21.0661 91.729 22.0794V22.3679H89.5679C86.9066 22.3679 85.6176 23.0862 85.6176 25.414C85.6176 27.7419 87.8749 28.024 89.5679 28.024C90.3246 28.0433 91.0749 27.8894 91.7611 27.5751C91.7611 27.8253 91.9535 28.024 92.2036 28.0305C92.2036 28.0305 92.2036 28.0305 92.21 28.0305H93.4926V22.0794C93.4926 20.1042 91.9022 18.501 89.927 18.4818ZM91.7611 24.4329C91.7611 25.7154 91.1198 26.2669 89.5679 26.2669C88.1956 26.2669 87.3812 26.2669 87.3812 25.2088C87.3812 24.1507 88.2277 24.1443 89.5679 24.1443H91.7611V24.4329ZM120.176 28.0305C120.664 28.0305 121.061 27.6329 121.061 27.1455V19.2321C121.061 19.2321 121.061 19.2321 121.061 19.2257C121.061 18.8152 120.728 18.4882 120.317 18.4946C119.811 18.4946 119.336 18.7319 119.035 19.1359L114.79 24.7792V19.3731C114.79 18.8858 114.392 18.4882 113.905 18.4882C113.436 18.5138 113.065 18.8986 113.065 19.3731V27.2737C113.065 27.2737 113.065 27.2737 113.065 27.2802C113.065 27.6906 113.398 28.0176 113.808 28.0112C114.315 28.0112 114.79 27.7739 115.091 27.3699L119.285 21.7331V27.1455C119.285 27.6329 119.683 28.0305 120.17 28.0305C120.17 28.0305 120.17 28.0305 120.176 28.0305ZM138.62 28.0305C139.107 28.0305 139.505 27.6329 139.505 27.1455V19.2321C139.505 18.8216 139.178 18.4946 138.767 18.4946C138.261 18.4946 137.786 18.7319 137.485 19.1359L133.284 24.7792V19.3731C133.284 19.3731 133.284 19.3731 133.284 19.3667C133.284 18.8794 132.893 18.4882 132.406 18.4882C131.918 18.4882 131.521 18.8858 131.521 19.3731V27.2737C131.521 27.2737 131.521 27.2802 131.521 27.2866C131.521 27.6906 131.854 28.0176 132.258 28.0112C132.765 28.0112 133.233 27.7675 133.541 27.3699L137.728 21.7331V27.1455C137.728 27.6329 138.126 28.0305 138.613 28.0305C138.613 28.0305 138.613 28.0305 138.62 28.0305ZM158.98 42.6517C159.743 42.1964 160.308 41.4717 160.577 40.6252C160.603 40.5419 160.616 40.4585 160.616 40.3687C160.616 39.9134 160.237 39.5479 159.776 39.5543H159.654C159.295 39.5543 158.987 39.7916 158.878 40.1315C158.717 40.606 158.378 40.9972 157.922 41.2152C157.672 41.3307 157.396 41.3948 157.121 41.3884H156.39C155.396 41.3884 154.594 40.5868 154.594 39.5928V37.1816C154.594 36.1876 155.396 35.386 156.39 35.386H157.14C157.935 35.386 158.64 35.9118 158.878 36.6685C159 37.0212 159.339 37.2521 159.711 37.2457H159.801C159.878 37.2457 159.962 37.2329 160.038 37.2072C160.475 37.0725 160.712 36.6108 160.577 36.1812C160.115 34.6613 158.724 33.6224 157.14 33.616H156.39C154.421 33.616 152.824 35.2128 152.824 37.1816V39.5928C152.824 41.5615 154.421 43.1583 156.39 43.1583H157.095C157.756 43.1647 158.41 42.9916 158.98 42.6517ZM105.074 34.5074V37.2585H101.361V34.5074C101.361 34.02 100.964 33.6224 100.476 33.6224C99.9888 33.6224 99.5912 34.02 99.5912 34.5074V42.2733C99.5912 42.7607 99.9888 43.1583 100.476 43.1583C100.964 43.1583 101.361 42.7607 101.361 42.2733V38.9964H105.074V42.2733C105.074 42.7607 105.459 43.1519 105.946 43.1583C105.946 43.1583 105.946 43.1583 105.953 43.1583C106.44 43.1647 106.844 42.7735 106.85 42.2862C106.85 42.2862 106.85 42.2798 106.85 42.2733V34.5074C106.85 34.02 106.466 33.6289 105.978 33.6224C105.978 33.6224 105.972 33.6224 105.966 33.6224C105.478 33.616 105.081 34.0008 105.074 34.4882C105.074 34.4946 105.074 34.501 105.074 34.5074ZM175.558 33.6096H174.91C173.986 33.5968 173.095 33.9303 172.409 34.5459C172.261 34.6806 172.12 34.8216 171.998 34.982C171.697 35.3539 171.755 35.8926 172.127 36.1876C172.197 36.2453 172.281 36.2902 172.37 36.3287C172.736 36.4633 173.153 36.3543 173.403 36.0529C173.461 35.9824 173.525 35.9182 173.595 35.8541C173.948 35.5399 174.403 35.3731 174.878 35.3796H175.519C176.532 35.3603 177.372 36.1619 177.392 37.1752C177.392 37.188 177.392 37.2008 177.392 37.2136V37.4958H175.205C172.543 37.4958 171.248 38.214 171.248 40.5483C171.248 42.8826 173.505 43.1519 175.205 43.1519C175.962 43.1711 176.705 43.0172 177.392 42.703C177.392 42.9531 177.597 43.1583 177.847 43.1583H179.162V37.2136C179.162 35.2257 177.546 33.6096 175.558 33.6096ZM177.379 39.5479C177.379 40.8305 176.737 41.382 175.192 41.382C173.82 41.382 173.005 41.382 173.005 40.3238C173.005 39.2657 173.845 39.2593 175.192 39.2593H177.392L177.379 39.5479ZM87.2337 43.1583C87.721 43.1583 88.1186 42.7607 88.1186 42.2733V31.3715C88.1186 30.7303 87.5992 30.2172 86.9579 30.2172C86.5732 30.2172 86.2012 30.3776 85.9383 30.6597L82.7319 34.0521L79.5255 30.6533C79.2625 30.3776 78.897 30.2172 78.5122 30.2108C77.8709 30.2108 77.3515 30.7303 77.3515 31.3715V42.2733C77.3515 42.7607 77.7491 43.1583 78.2365 43.1583C78.7238 43.1583 79.1214 42.7607 79.1214 42.2733V32.8337L81.5968 35.5142C81.5968 35.5142 81.6353 35.5527 81.6545 35.5719C82.2509 36.1427 83.2 36.117 83.7643 35.5142L86.291 32.8337V42.2733C86.291 42.7607 86.6886 43.1583 87.1759 43.1583C87.1759 43.1583 87.2144 43.1583 87.2337 43.1583ZM94.1723 33.616H93.4605C91.4725 33.616 89.8565 35.2321 89.8565 37.22V39.5607C89.8565 41.5487 91.4725 43.1583 93.4605 43.1583H94.1723C96.1603 43.1583 97.7699 41.5487 97.7699 39.5607V37.22C97.7699 35.2321 96.1603 33.6224 94.1723 33.616ZM96 39.5607C96 40.5675 95.1792 41.3884 94.1723 41.3884H93.4605C92.4473 41.3884 91.6329 40.5739 91.6265 39.5607V37.22C91.6265 36.2068 92.4473 35.386 93.4605 35.386H94.1723C95.1856 35.386 96 36.2068 96 37.22V39.5607ZM113.327 34.5074V36.5339H111.218C110.82 36.5339 110.499 36.2132 110.493 35.8156V34.5331C110.493 34.0457 110.095 33.6481 109.608 33.6481C109.121 33.6481 108.729 34.0393 108.729 34.5267C108.729 34.5267 108.729 34.5267 108.729 34.5331V35.8156C108.729 37.188 109.845 38.3038 111.218 38.3038H113.327V42.2733C113.327 42.7607 113.725 43.1583 114.212 43.1583C114.7 43.1583 115.097 42.7607 115.097 42.2733V34.5074C115.097 34.02 114.7 33.6224 114.212 33.6224C113.725 33.6224 113.327 34.02 113.327 34.5074ZM137.632 33.616H136.946C134.958 33.616 133.348 35.2321 133.348 37.22V39.5607C133.348 41.5487 134.958 43.1519 136.946 43.1583H137.632C139.62 43.1583 141.23 41.5487 141.236 39.5607V37.22C141.236 35.2321 139.62 33.616 137.632 33.616ZM139.466 39.5607C139.466 40.5739 138.645 41.3884 137.632 41.3884H136.946C135.939 41.3884 135.125 40.5675 135.118 39.5607V37.22C135.118 36.2068 135.933 35.3924 136.946 35.386H137.632C138.645 35.386 139.466 36.2068 139.466 37.22V39.5607ZM130.495 33.6096C128.507 33.6096 126.897 35.2257 126.897 37.2136V42.3054C126.897 42.7735 127.282 43.1519 127.75 43.1583H127.808C128.276 43.1519 128.648 42.7735 128.654 42.3054V37.2136C128.654 36.2004 129.469 35.386 130.482 35.3796H131.861C132.329 35.3796 132.713 34.9948 132.713 34.5267V34.4689C132.713 34.0008 132.335 33.616 131.867 33.6096C131.867 33.6096 131.867 33.6096 131.861 33.6096H130.495ZM147.367 33.6096H146.655C146.014 33.6096 145.379 33.7828 144.827 34.1162C144.827 33.8341 144.603 33.6096 144.321 33.6096H143.038V47.1086C143.038 47.596 143.429 47.9872 143.917 47.9872H143.923C144.41 47.9872 144.802 47.6024 144.808 47.115V42.6196C145.36 42.9467 145.994 43.1198 146.636 43.1198H147.348C149.335 43.1198 150.945 41.5102 150.945 39.5222V37.2136C150.945 35.2321 149.348 33.6224 147.367 33.6096ZM147.367 41.382H146.655C145.648 41.382 144.827 40.5611 144.827 39.5543V37.2521C144.821 36.8417 144.943 36.4377 145.186 36.1042C145.533 35.6361 146.078 35.3667 146.655 35.3667H147.367C148.374 35.3796 149.182 36.2068 149.175 37.2136L149.201 39.5543C149.201 40.5675 148.38 41.382 147.367 41.382ZM169.459 39.8172C169.459 38.7976 168.984 37.8357 168.176 37.2136C168.42 36.8289 168.548 36.3864 168.548 35.9311V34.4689C168.548 33.9816 168.151 33.584 167.663 33.584C167.176 33.584 166.778 33.9816 166.778 34.4689V35.9695C166.778 36.2774 166.541 36.5275 166.233 36.5403H164.271V34.5074C164.271 34.0008 163.867 33.5968 163.36 33.5904C162.886 33.5904 162.507 33.9687 162.501 34.4433V42.2477C162.501 42.7351 162.899 43.1327 163.386 43.1327C163.873 43.1327 164.271 42.7351 164.271 42.2477V38.323H166.24C167.061 38.3423 167.708 39.0156 167.702 39.8365V42.2477C167.702 42.7351 168.099 43.1327 168.587 43.1327C169.074 43.1327 169.472 42.7351 169.472 42.2477V39.8172H169.459ZM123.755 38.9836C124.415 38.9836 124.954 38.4449 124.954 37.7844V37.2136C124.954 35.2257 123.338 33.6096 121.35 33.6096H120.644C118.657 33.6096 117.04 35.2257 117.04 37.2136V39.5479C117.04 41.5359 118.657 43.1519 120.644 43.1519H121.286C122.094 43.1519 122.883 42.8761 123.524 42.3824C124.095 41.9399 124.524 41.3435 124.749 40.6573C124.896 40.202 124.653 39.7146 124.197 39.5671C124.107 39.5351 124.018 39.5222 123.921 39.5222H123.909C123.524 39.5351 123.19 39.7916 123.081 40.1635C122.818 40.9074 122.107 41.3948 121.318 41.382H120.677C119.663 41.382 118.842 40.5611 118.842 39.5479V38.9836H123.755ZM118.81 37.2136C118.81 36.2004 119.631 35.3796 120.644 35.3796H121.35C122.363 35.3796 123.184 36.2004 123.184 37.2136H118.81ZM3.92465 18.5587C3.30902 18.5587 2.8024 19.0589 2.8024 19.681V21.3996H1.12224C0.506613 21.3996 0 21.8998 0 22.5218C0 23.1375 0.5002 23.6441 1.12224 23.6441H2.8024V25.3242C2.8024 25.9399 3.30261 26.4465 3.92465 26.4465C4.54028 26.4465 5.04689 25.9463 5.04689 25.3242V23.6441H6.76553C7.38116 23.6441 7.88778 23.1439 7.88778 22.5218C7.88778 21.9062 7.38758 21.3996 6.76553 21.3996H5.04689V19.681C5.04689 19.0653 4.54669 18.5587 3.92465 18.5587ZM22.9964 27.4918C24.6188 26.9018 25.9784 25.8693 26.8313 24.5739C27.7483 23.1824 27.9856 21.5984 27.4854 20.2132C26.485 17.4621 22.8489 16.2501 19.3731 17.5134C17.7507 18.1034 16.3912 19.1359 15.5383 20.4313C14.6212 21.8228 14.384 23.4068 14.8842 24.792C15.6152 26.8056 17.7571 27.992 20.2132 27.992C21.1174 27.992 22.0601 27.8317 22.9964 27.4918ZM25.119 21.079C25.4269 21.9319 25.01 22.7655 24.7279 23.1888C24.1764 24.0224 23.2337 24.7279 22.1371 25.1255C20.008 25.9014 17.7699 25.3563 17.2569 23.9327C16.9491 23.0798 17.3659 22.2461 17.6481 21.8228C18.1996 20.9892 19.1423 20.2838 20.2389 19.8862C20.8994 19.6489 21.5663 19.5335 22.1948 19.5335C23.5928 19.5335 24.7663 20.0978 25.1255 21.079H25.119ZM39.0798 21.6882C38.7463 20.7647 37.4637 20.38 36.2196 20.8289C34.9756 21.2778 34.2381 22.3936 34.578 23.317C34.9178 24.2405 36.194 24.6252 37.4381 24.1764C38.6822 23.7275 39.4196 22.6116 39.0798 21.6882ZM57.8693 27.4918C59.4918 26.9018 60.8513 25.8693 61.7042 24.5739C62.6212 23.1824 62.8585 21.5984 62.3583 20.2132C61.8581 18.8345 60.6525 17.7699 59.0621 17.289C57.5743 16.8465 55.8685 16.9234 54.2461 17.507C52.6236 18.097 51.2641 19.1295 50.4112 20.4249C49.4942 21.8164 49.2569 23.4004 49.7571 24.7856C50.2573 26.1643 51.4629 27.2289 53.0533 27.7098C53.6882 27.9022 54.3615 27.992 55.0541 27.992C55.984 27.992 56.9395 27.8188 57.8629 27.4854L57.8693 27.4918ZM58.3375 19.7066C58.8184 19.8541 59.6778 20.2196 59.992 21.0725C60.2998 21.9255 59.883 22.7591 59.6008 23.1824C59.0493 24.016 58.1066 24.7214 57.01 25.119C55.9134 25.5166 54.7335 25.5808 53.778 25.2922C53.297 25.1447 52.4377 24.7792 52.1234 23.9263C51.8156 23.0733 52.2325 22.2397 52.5146 21.8164C53.0661 20.9828 54.0088 20.2774 55.1054 19.8798C55.7531 19.6425 56.4265 19.5271 57.0613 19.5271C57.5102 19.5271 57.9399 19.5848 58.3375 19.7066ZM59.0685 30.6854C64.4425 28.7359 67.4758 23.4709 65.8341 18.9499C65.0261 16.7118 63.224 15.006 60.7615 14.1403C58.3888 13.3066 55.6762 13.3579 53.1174 14.2814C50.5587 15.2112 48.4425 16.9106 47.1599 19.0717C45.8261 21.3162 45.5439 23.7788 46.3519 26.0168C47.1663 28.2549 48.9619 29.9607 51.4244 30.8265C52.5467 31.224 53.7395 31.4164 54.9643 31.4164C56.3303 31.4164 57.7218 31.1727 59.0685 30.679V30.6854ZM59.9214 16.513C61.6529 17.1222 62.9098 18.2958 63.4613 19.8092C64.6285 23.0285 62.2685 26.8441 58.2092 28.319C56.1956 29.0501 54.0858 29.095 52.2645 28.4537C50.5331 27.8445 49.2697 26.6709 48.7247 25.1575C48.1731 23.6441 48.3912 21.9383 49.3275 20.3607C50.315 18.6998 51.9631 17.3788 53.9768 16.6541C55.0477 16.2629 56.1507 16.0705 57.2216 16.0705C58.1579 16.0705 59.0685 16.218 59.9214 16.5194V16.513ZM58.7222 21.5343C58.3888 20.6108 56.9202 20.2966 55.4517 20.8289C53.9832 21.3611 53.0597 22.5475 53.3932 23.4709C53.7267 24.3944 55.1952 24.7086 56.6637 24.1764C58.1323 23.6441 59.0557 22.4577 58.7222 21.5343Z" fill="#252628"/>
</svg>
