<svg width="201" height="176" viewBox="0 0 201 176" fill="none" xmlns="http://www.w3.org/2000/svg">
<g clip-path="url(#clip0_1034_3491)">
<path d="M194.644 53.3325L194.883 53.9929H194.943C210.283 97.5504 181.026 148.315 128.913 167.22L128.909 167.221C115.803 172.027 102.263 174.397 88.9768 174.397C77.0616 174.397 65.4699 172.526 54.5719 168.665L54.5696 168.664C30.6563 160.257 13.2777 143.719 5.39795 122.066C-2.48085 100.415 0.293219 76.5597 13.1851 54.7614C25.6437 33.769 46.2188 17.1713 71.1298 8.11822C96.0423 -0.872546 122.425 -1.36128 145.473 6.73685C169.388 15.1445 186.828 31.6822 194.644 53.3325ZM119.758 146.354V146.428L121.099 145.94C161.238 131.356 184.952 93.4524 173.24 61.148L173.239 61.1465C167.71 45.9735 155.124 34.2614 137.893 28.1984C129.409 25.2002 120.359 23.7362 111.066 23.7362C100.438 23.7362 89.4986 25.6451 78.8816 29.5228C58.9255 36.705 42.5578 49.8095 32.7365 66.327L32.7361 66.3278C23.4206 82.0237 21.2103 99.0751 26.74 114.252C32.207 129.429 44.8588 141.141 62.0871 147.202C79.7954 153.438 100.209 153.139 119.758 146.354Z" stroke="#252628" stroke-width="2"/>
</g>
<defs>
<clipPath id="clip0_1034_3491">
<rect width="200.024" height="175.397" fill="white"/>
</clipPath>
</defs>
</svg>
