<svg width="397" height="96" viewBox="0 0 397 96" fill="none" xmlns="http://www.w3.org/2000/svg">
<g clip-path="url(#clip0_900_9969)">
<path d="M341.514 0L305.751 61.9388L269.988 0L234.235 61.9388L198.472 0L162.728 61.9388L126.946 0L91.1833 61.9388L55.4297 0L0 96H396.935L341.514 0ZM39.3336 73.2925L55.4297 45.3964L71.5258 73.2925H39.3336ZM110.85 73.2925L126.946 45.3964L143.042 73.2925H110.85ZM182.376 73.2925L198.472 45.3964L214.568 73.2925H182.376ZM253.892 73.2925L269.988 45.3964L286.085 73.2925H253.892ZM341.514 45.3964L357.61 73.2925H325.455L341.514 45.3964Z" fill="#252628"/>
</g>
<defs>
<clipPath id="clip0_900_9969">
<rect width="396.935" height="96" fill="white"/>
</clipPath>
</defs>
</svg>
