<?xml version="1.0" encoding="utf-8"?><svg viewBox="0 0 70 60" xmlns="http://www.w3.org/2000/svg" xmlns:xlink="http://www.w3.org/1999/xlink"><style>:root>svg{display:none}:root>svg:target{display:block}</style><svg viewBox="0 0 70 24" id="icon-arrow" xmlns="http://www.w3.org/2000/svg"><path fill-rule="evenodd" clip-rule="evenodd" d="M57.967 0 70 12 57.967 24l-3.747-3.738 5.634-5.62H0V9.358h59.854l-5.634-5.62L57.967 0Z"/></svg><svg viewBox="0 0 8 12" id="icon-arrow-noline" xmlns="http://www.w3.org/2000/svg"><path d="M6 12 0 6l6-6 1.4 1.4L2.8 6l4.6 4.6L6 12Z"/></svg><svg viewBox="0 0 60 60" id="icon-tel" xmlns="http://www.w3.org/2000/svg"><path d="M32.688 37.05a5.107 5.107 0 0 1-6 .966 10.517 10.517 0 0 1-3.384-2.736 10.536 10.536 0 0 1-1.8-4.026A5.112 5.112 0 0 1 24 25.716l1.992-1.116L21 12.6l-1.368.546c-6 2.4-9.876 6.078-11.244 10.668-1.578 5.274.162 11.574 5.166 18.732 5.646 8.106 11.538 9.882 15.486 9.948h.24c5.292 0 10.656-2.952 14.4-7.938l.888-1.2-10.29-7.956-1.59 1.65Zm7.656 6.852c-3.132 3.6-7.248 5.646-11.25 5.592-4.728-.078-9.132-3-13.086-8.652-4.452-6.372-6.054-11.808-4.752-16.158 1.2-4.074 4.848-6.6 8.124-8.154l2.82 6.774a8.136 8.136 0 0 0-3.6 8.604c.403 1.878 1.2 3.649 2.34 5.196a13.487 13.487 0 0 0 4.374 3.6 8.137 8.137 0 0 0 9.246-1.248l5.784 4.446ZM49.14 17.232a20.293 20.293 0 0 0-20.106-9.09l.45 2.964a17.303 17.303 0 0 1 19.494 20.778 17.479 17.479 0 0 1-1.134 3.45l2.736 1.2a20.31 20.31 0 0 0-1.44-19.332v.03Z"/><path d="M35.046 14.49A13.899 13.899 0 0 0 30 14.328l.45 2.964a11.053 11.053 0 0 1 12.414 13.266 10.641 10.641 0 0 1-.726 2.202l2.736 1.236a14.04 14.04 0 0 0-9.828-19.506Z"/><path d="m36.245 30.102 2.736 1.2a7.79 7.79 0 0 0 .498-1.506 7.589 7.589 0 0 0-8.543-9.078l.45 2.97a4.584 4.584 0 0 1 4.86 6.414Z"/></svg></svg>