<svg width="201" height="176" viewBox="0 0 201 176" fill="none" xmlns="http://www.w3.org/2000/svg">
<path d="M195.585 52.9929C187.655 31.0294 169.971 14.2894 145.805 5.79345C122.52 -2.3878 95.8994 -1.88434 70.7893 7.17797C45.6791 16.3032 24.9114 33.0433 12.3248 54.2516C-0.702239 76.278 -3.53421 100.444 4.45824 122.408C12.4507 144.371 30.0718 161.111 54.238 169.607C65.2512 173.509 76.9567 175.397 88.9768 175.397C102.381 175.397 116.038 173.006 129.254 168.16C181.991 149.028 211.758 97.3605 195.648 52.9929H195.585ZM120.758 144.938C100.997 152.112 80.2921 152.552 62.4192 146.259C45.4274 140.281 33.0297 128.764 27.6804 113.912C22.2682 99.0597 24.4079 82.3196 33.5961 66.8381C43.2877 50.5386 59.4614 37.5744 79.2222 30.4631C89.732 26.6242 100.556 24.7362 111.066 24.7362C120.254 24.7362 129.191 26.1836 137.561 29.1415C154.553 35.1201 166.887 46.6367 172.3 61.4889C183.753 93.081 160.594 130.526 120.758 145V144.938Z" fill="#252628"/>
</svg>
