<svg width="129" height="108" viewBox="0 0 129 108" fill="none" xmlns="http://www.w3.org/2000/svg">
<g clip-path="url(#clip0_900_9977)">
<path d="M126.548 31.4499C121.64 17.9194 109.808 7.47254 94.2011 2.75259C79.6007 -1.58976 62.8606 -0.834573 46.9387 4.8923C31.0167 10.6821 17.675 20.8143 9.30494 33.5267C0.305573 47.183 -2.02293 62.7274 2.88581 76.3209C7.79456 89.8514 19.6259 100.298 35.2332 105.018C41.4635 106.906 48.0715 107.787 54.8682 107.787C63.9934 107.787 73.3704 106.088 82.4327 102.816C98.3547 97.0257 111.696 86.8936 120.066 74.1812C129.066 60.5248 131.394 44.9804 126.486 31.387L126.548 31.4499ZM99.4874 60.5877C94.0752 68.769 84.8241 75.6915 74.0626 79.5934C63.3012 83.4952 51.7216 84.1245 42.3446 81.2926C37.6246 79.8451 29.1917 76.2579 26.108 67.8879C23.0872 59.5179 27.1778 51.3366 29.9469 47.183C35.3591 39.0018 44.6102 32.0792 55.3716 28.1774C61.7278 25.8489 68.3358 24.7161 74.5661 24.7161C78.9714 24.7161 83.1879 25.2825 87.0897 26.4782C91.8097 27.9257 100.243 31.5128 103.326 39.8829C106.347 48.2529 102.256 56.4342 99.4874 60.5877Z" fill="#252628"/>
</g>
<defs>
<clipPath id="clip0_900_9977">
<rect width="129" height="108" fill="white"/>
</clipPath>
</defs>
</svg>
