<svg width="200" height="176" viewBox="0 0 200 176" fill="none" xmlns="http://www.w3.org/2000/svg">
<path d="M161.548 65.4501C156.639 51.9196 144.808 41.4728 129.2 36.7528C114.6 32.4105 97.8599 33.1657 81.9379 38.8925C66.016 44.6823 52.6743 54.8145 44.3042 67.5269C35.3048 81.1833 32.9763 96.7277 37.8851 110.321C42.7938 123.852 54.6252 134.298 70.2325 139.018C76.4628 140.906 83.0707 141.787 89.8675 141.787C98.9927 141.787 108.37 140.088 117.432 136.816C133.354 131.026 146.696 120.894 155.066 108.181C164.065 94.525 166.394 78.9807 161.485 65.3872L161.548 65.4501ZM134.487 94.588C129.075 102.769 119.823 109.692 109.062 113.594C98.3004 117.495 86.7208 118.125 77.3439 115.293C72.6239 113.845 64.1909 110.258 61.1072 101.888C58.0865 93.5181 62.1771 85.3368 64.9461 81.1833C70.3583 73.002 79.6094 66.0795 90.3709 62.1776C96.7271 59.8491 103.335 58.7163 109.565 58.7163C113.971 58.7163 118.187 59.2827 122.089 60.4784C126.809 61.9259 135.242 65.5131 138.326 73.8831C141.346 82.2531 137.256 90.4344 134.487 94.588Z" fill="#252628"/>
<path d="M195.595 52.9893C187.665 31.0258 169.981 14.2857 145.815 5.78979C122.53 -2.39146 95.9094 -1.888 70.7993 7.1743C45.6891 16.2995 24.9214 33.0396 12.3348 54.2479C-0.692229 76.2744 -3.5242 100.441 4.46825 122.404C12.4607 144.368 30.0818 161.108 54.248 169.604C65.2612 173.505 76.9667 175.393 88.9868 175.393C102.391 175.393 116.048 173.002 129.264 168.156C182.001 149.025 211.768 97.3568 195.658 52.9893H195.595ZM120.768 144.934C101.007 152.108 80.3021 152.549 62.4292 146.255C45.4374 140.277 33.0397 128.76 27.6904 113.908C22.2782 99.056 24.4179 82.3159 33.6061 66.8345C43.2977 50.5349 59.4714 37.5708 79.2322 30.4594C89.742 26.6205 100.566 24.7325 111.076 24.7325C120.264 24.7325 129.201 26.18 137.571 29.1378C154.563 35.1164 166.897 46.6331 172.31 61.4852C183.763 93.0774 160.604 130.522 120.768 144.997V144.934Z" fill="#252628"/>
<path d="M105.682 104.367C120.123 99.1274 129.159 87.5169 125.864 78.4337C122.568 69.3506 108.19 66.2345 93.7485 71.4736C79.307 76.7128 70.2712 88.3233 73.5664 97.4064C76.8616 106.49 91.24 109.606 105.682 104.367Z" fill="#252628"/>
</svg>
