<svg width="390" height="47" viewBox="0 0 390 47" fill="none" xmlns="http://www.w3.org/2000/svg">
<path d="M360.583 10.4383L352.247 17.6523C348.899 20.5282 344.632 22.1094 340.219 22.1094C335.805 22.1094 331.538 20.5282 328.19 17.6523L319.865 10.4383C312.017 3.70583 302.02 0.00474035 291.68 0.00474035C281.341 0.00474035 271.343 3.70583 263.496 10.4383L255.17 17.6523C251.822 20.5282 247.555 22.1094 243.142 22.1094C238.728 22.1094 234.461 20.5282 231.113 17.6523L222.778 10.4383C214.933 3.70465 204.936 0.00265491 194.598 0.00265491C184.26 0.00265491 174.263 3.70465 166.419 10.4383L158.083 17.6523C154.736 20.5282 150.468 22.1094 146.055 22.1094C141.641 22.1094 137.374 20.5282 134.026 17.6523L125.701 10.4383C117.854 3.70583 107.856 0.00474035 97.5163 0.00474035C87.1769 0.00474035 77.1791 3.70583 69.3319 10.4383L61.0064 17.6523C57.6587 20.5282 53.3913 22.1094 48.9779 22.1094C44.5645 22.1094 40.2972 20.5282 36.9494 17.6523L28.6138 10.4383C20.673 3.57737 10.4933 -0.135782 0 0.00109694L0 24.6542C4.55772 24.5224 9.00045 26.097 12.4579 29.0696L20.7935 36.2837C28.6407 43.0161 38.6385 46.7172 48.9779 46.7172C59.3173 46.7172 69.3152 43.0161 77.1623 36.2837L85.4878 29.0696C88.8356 26.1938 93.103 24.6125 97.5163 24.6125C101.93 24.6125 106.197 26.1938 109.545 29.0696L117.88 36.2837C125.725 43.0173 135.722 46.7193 146.06 46.7193C156.398 46.7193 166.395 43.0173 174.239 36.2837L182.575 29.0696C185.923 26.1938 190.19 24.6125 194.603 24.6125C199.017 24.6125 203.284 26.1938 206.632 29.0696L214.957 36.2837C222.804 43.0161 232.802 46.7172 243.142 46.7172C253.481 46.7172 263.479 43.0161 271.326 36.2837L279.652 29.0696C282.999 26.1938 287.267 24.6125 291.68 24.6125C296.094 24.6125 300.361 26.1938 303.709 29.0696L312.044 36.2837C319.889 43.0173 329.885 46.7193 340.224 46.7193C350.562 46.7193 360.558 43.0173 368.403 36.2837L376.739 29.0696C380.288 26.024 384.869 24.4547 389.54 24.6846V0.00109694C378.93 -0.214894 368.615 3.50288 360.583 10.4383V10.4383Z" fill="#252628"/>
</svg>
